<svg id="Capa_1" enable-background="new 0 0 512 512" height="512" viewBox="0 0 512 512" width="512" xmlns="http://www.w3.org/2000/svg"><g><g><path d="m125.669 305.057-4.381-4.382-54.17 80.802-15.353 68.308 15.346 37.61 58.558-39.259 22.517-56.986z" fill="#dedede"/><path d="m125.669 305.057v143.079l85.656-57.423z" fill="#5bd6fd"/><path d="m11.932 463.794c-6.959 10.371-5.602 24.218 3.228 33.047 8.829 8.829 22.677 10.187 33.047 3.228l18.905-12.673.007-105.918z" fill="#5bd6fd"/><path d="m493.408 134.696-2.294-3.374.035-.157c6.76-30.145-8.958-60.819-37.375-72.938h-.001c-12.119-28.417-42.794-44.136-72.938-37.376l-.156.035-3.374-2.295c-24.033-16.347-56.06-14.464-78.012 4.587l-3.233 2.806-6.541-1.17c-27.479-4.916-54.979 8.53-67.974 33.237l-3.129 5.949-7.439 1.217c-27.147 4.443-48.428 25.722-52.871 52.87l-1.217 7.44-5.949 3.129c-24.707 12.995-38.153 40.495-33.236 67.975l1.17 6.538-2.805 3.233c-19.051 21.952-20.935 53.979-4.587 78.012l2.294 3.374-.035.157c-6.76 30.144 8.958 60.819 37.375 72.938h.001c12.119 28.417 42.793 44.136 72.938 37.376l.156-.035 3.374 2.295c24.033 16.347 56.06 14.464 78.012-4.587l3.233-2.806 6.541 1.17c27.479 4.916 54.979-8.53 67.974-33.237l3.129-5.949 7.439-1.217c27.147-4.443 48.427-25.722 52.87-52.87l1.218-7.44 5.949-3.129c24.707-12.995 38.153-40.495 33.236-67.975l-1.17-6.539 2.806-3.232c19.051-21.951 20.933-53.979 4.586-78.012z" fill="#ffb3dd"/><path d="m235.96 108.161c38.078-38.078 77.348-71.588 115.999-99.755-18.442-3.112-37.849 1.913-52.666 14.772l-3.233 2.806-6.541-1.17c-27.479-4.917-54.979 8.529-67.974 33.236l-3.129 5.95-7.439 1.217c-27.147 4.442-48.428 25.722-52.871 52.87l-1.217 7.44-5.949 3.128c-24.707 12.996-38.153 40.495-33.236 67.975l1.17 6.538-2.805 3.233c-15.669 18.055-19.713 42.921-11.565 64.554 33.331-53.26 77.869-109.206 131.456-162.794z" fill="#ff9dd3"/><g><g><g><ellipse cx="218.138" cy="160.792" fill="#fff" rx="27.649" ry="34.719" transform="matrix(.707 -.707 .707 .707 -49.806 201.343)"/></g><g><ellipse cx="351.208" cy="293.862" fill="#fff" rx="27.649" ry="34.719" transform="matrix(.707 -.707 .707 .707 -104.926 334.41)"/></g></g></g><path d="m39.295 422.978-27.363 40.815c-6.959 10.371-5.602 24.218 3.228 33.047 8.088 8.088 20.379 9.885 30.359 4.784-10.07-20.476-11.863-47.367-6.224-78.646z" fill="#00c4fc"/></g><g><path d="m255.997 140.934-10.037 10.036c-2.929 2.929-2.929 7.678 0 10.607 2.831 2.832 7.703 2.904 10.607 0l10.037-10.036c2.929-2.929 2.929-7.678 0-10.607-2.929-2.93-7.678-2.93-10.607 0z"/><path d="m360.459 245.395-10.036 10.037c-2.929 2.929-2.929 7.678 0 10.607 2.928 2.928 7.678 2.929 10.607 0l10.036-10.037c2.929-2.929 2.929-7.678 0-10.607s-7.679-2.929-10.607 0z"/><path d="m317.05 214.494c-5.301.365-10.483-1.575-14.227-5.318-3.743-3.743-5.682-8.929-5.318-14.227.284-4.132-2.836-7.712-6.969-7.997-4.133-.283-7.713 2.836-7.997 6.969-.661 9.625 2.866 19.051 9.676 25.861 6.765 6.765 16.162 10.339 25.861 9.676 4.133-.284 7.253-3.865 6.969-7.997-.282-4.131-3.858-7.246-7.995-6.967z"/><path d="m499.625 130.47-.519-.764c5.667-31.685-10.578-63.315-39.651-77.162-13.846-29.073-45.484-45.316-77.161-39.651l-.764-.52c-26.819-18.241-62.656-16.134-87.151 5.123l-.526.457-3.012-.539c-30.837-5.516-61.355 9.404-75.937 37.131l-1.39 2.643-3.752.614c-30.36 4.969-54.097 28.705-59.065 59.065l-.614 3.753-2.642 1.39c-27.726 14.583-42.648 45.101-37.131 75.939l.539 3.01-.455.524c-21.259 24.496-23.366 60.334-5.125 87.152l.52.765c-1.307 7.307-1.435 14.609-.522 21.693l-99.582 148.536c-8.931 13.31-7.185 31.197 4.152 42.533 11.257 11.258 29.135 13.143 42.53 4.155l148.539-99.582c6.948.895 14.151.824 21.693-.524l.764.521c27.092 18.427 62.908 15.916 87.152-5.124l.526-.456 3.012.539c31.019 5.549 61.443-9.574 75.937-37.131l1.39-2.643 3.752-.614c30.36-4.968 54.096-28.704 59.064-59.064l.614-3.753 2.642-1.39c27.727-14.584 42.648-45.101 37.13-75.939l-.539-3.009.456-.525c21.261-24.496 23.368-60.334 5.126-87.153zm-366.466 303.622v-24.431c0-4.142-3.358-7.501-7.501-7.501s-7.501 3.358-7.501 7.501v34.488l-43.56 29.204.001-16.667h-.001c0-4.143-3.358-7.501-7.5-7.501-4.142 0-7.501 3.358-7.501 7.5l-.001 26.725-15.586 10.448c-7.373 4.948-17.284 3.979-23.566-2.304-6.283-6.282-7.251-16.193-2.301-23.569l41.458-61.839-.002 20.694c0 4.143 3.358 7.501 7.5 7.501 4.142 0 7.501-3.358 7.501-7.5h.001l.003-43.074 35.898-53.548c2.052 4.772 4.618 9.312 7.656 13.537v35.956c0 4.142 3.358 7.501 7.501 7.501s7.501-3.358 7.501-7.501v-20.605c3.745 2.821 8.112 5.466 12.28 7.452 7.931 16.41 20.814 28.317 36.311 34.956zm350.013-226.302c-1.436 2.111-5.411 4.516-4.525 9.47l1.17 6.539c4.361 24.374-7.432 48.494-29.346 60.02l-5.949 3.129c-2.083 1.096-3.531 3.105-3.91 5.427l-1.218 7.441c-3.927 23.995-22.688 42.756-46.683 46.683l-7.439 1.217c-2.322.38-4.332 1.828-5.427 3.91l-3.13 5.95c-11.489 21.844-35.565 33.723-60.019 29.347l-6.541-1.171c-4.954-.886-7.37 3.096-9.471 4.525-19.361 16.802-47.686 18.468-68.883 4.05-3.324-1.958-4.547-4.219-9.39-3.377-25.212 5.655-50.967-6.538-62.657-29.311-1.896-3.693-1.984-5.081-4.09-6.696-1.969-1.504-13.761-4.986-24.08-18.28 0 0 0-.001-.001-.001-10.347-13.336-14.245-30.53-10.534-47.076.002-.1.93-3.055-1.082-6.014l-2.295-3.374c-14.418-21.197-12.752-49.522 4.051-68.884 1.439-2.116 5.41-4.515 4.524-9.469l-1.17-6.539c-4.361-24.374 7.433-48.495 29.347-60.021l5.949-3.129c2.083-1.095 3.531-3.105 3.911-5.428l1.217-7.44c3.927-23.996 22.688-42.756 46.683-46.683l7.439-1.217c2.322-.38 4.332-1.828 5.427-3.91l3.13-5.95c11.526-21.914 35.646-33.708 60.019-29.347l6.541 1.17c4.954.885 7.375-3.099 9.471-4.525 19.36-16.802 47.686-18.468 68.882-4.05 2.279 1.222 4.738 4.417 9.228 3.413l.162-.036c26.617-5.968 53.702 7.912 64.404 33.003.759 1.78 2.177 3.198 3.957 3.957 25.092 10.701 38.97 37.786 33.001 64.402-.002.1-.931 3.056 1.082 6.017l2.295 3.374c14.417 21.198 12.752 49.524-4.05 68.884z"/></g></g></svg>